<svg xmlns="http://www.w3.org/2000/svg" height="380.09" width="390" xml:space="preserve"><path d="M176.26 278.72c-2.09 1-6.16 2.33-10.94 2.33-11.88 0-18.34-9.05-16.28-23.33 2-13.86 11.58-24.32 24.81-24.32 3.96 0 7.24 1.08 8.89 2.07l-2.79 7.39c-1.37-.83-3.62-1.83-7.13-1.83-8.07 0-13.61 7.3-14.9 16.27-1.45 10.04 2.99 16.02 10.16 16.02 3.44 0 5.96-.91 8.03-1.83zm34 0c-2.09 1-6.17 2.33-10.94 2.33-11.88 0-18.34-9.05-16.28-23.33 2-13.86 11.58-24.32 24.81-24.32 3.96 0 7.24 1.08 8.89 2.07l-2.79 7.39c-1.37-.83-3.62-1.83-7.13-1.83-8.07 0-13.61 7.3-14.9 16.27-1.45 10.04 2.99 16.02 10.16 16.02 3.44 0 5.96-.91 8.03-1.83zm37.93-.42c-3.13 1.49-7.87 2.74-13.47 2.74-12.4 0-18.24-9.21-16.23-23.16 1.97-13.61 10.41-24.49 22.07-24.49 11.58 0 14.66 10.71 13.03 22-.23 1.58-.5 2.9-.81 4.07h-26.15c-1.26 10.29 3.92 14.2 10.43 14.2 4.56 0 7.83-.91 10.7-2.16zm-2.4-25.73c.86-5.48-.17-12.29-6.82-12.29-6.35 0-10.05 6.97-11.26 12.29zm21 29.52h-8.67l9.33-66.5h8.67z"/><path d="m385.79 133.9 4.21-30.03h-91.17l-11.48 81.93H134.93L123.12 98H76.55L0 282.09h38.08l25.65-69.2h37.02l5.5 69.2h41.64l-9.31-69.2h144.98l-9.7 69.2h35.89l9.7-69.2h8.35l-2.29 16.35 56.61-33.46-48.19-26.61-2.33 16.63h-8.35l7.27-51.9zM73.77 185.8l20.45-55.16 4.38 55.16Z"/></svg>
