<svg xmlns="http://www.w3.org/2000/svg" viewBox="0 0 400 204" style="enable-background:new 0 0 400 204" xml:space="preserve"><symbol id="symbol"><path d="M390.79 45.86 395 15.83h-91.17l-11.48 81.93H139.93l-11.81-87.8H81.55L5 194.05h38.08l25.65-69.2h37.02l5.5 69.2h41.64l-9.31-69.2h144.98l-9.7 69.2h35.89l9.7-69.2h8.35l-2.29 16.35 56.61-33.46-48.19-26.61-2.33 16.63h-8.35l7.27-51.9h55.27zM78.77 97.76 99.22 42.6l4.38 55.16H78.77z"/><path d="M181.26 190.68c-2.09 1-6.16 2.33-10.94 2.33-11.88 0-18.34-9.05-16.28-23.33 2-13.86 11.58-24.32 24.81-24.32 3.96 0 7.24 1.08 8.89 2.07l-2.79 7.39c-1.37-.83-3.62-1.83-7.13-1.83-8.07 0-13.61 7.3-14.9 16.27-1.45 10.04 2.99 16.02 10.16 16.02 3.44 0 5.96-.91 8.03-1.83l.15 7.23zM215.26 190.68c-2.09 1-6.17 2.33-10.94 2.33-11.88 0-18.34-9.05-16.28-23.33 2-13.86 11.58-24.32 24.81-24.32 3.96 0 7.24 1.08 8.89 2.07l-2.79 7.39c-1.37-.83-3.62-1.83-7.13-1.83-8.07 0-13.61 7.3-14.9 16.27-1.45 10.04 2.99 16.02 10.16 16.02 3.44 0 5.96-.91 8.03-1.83l.15 7.23zM253.19 190.26c-3.13 1.49-7.87 2.74-13.47 2.74-12.4 0-18.24-9.21-16.23-23.16 1.97-13.61 10.41-24.49 22.07-24.49 11.58 0 14.66 10.71 13.03 22-.23 1.58-.5 2.9-.81 4.07h-26.15c-1.26 10.29 3.92 14.2 10.43 14.2 4.56 0 7.83-.91 10.7-2.16l.43 6.8zm-2.4-25.73c.86-5.48-.17-12.29-6.82-12.29-6.35 0-10.05 6.97-11.26 12.29h18.08zM271.79 194.05h-8.67l9.33-66.5h8.67l-9.33 66.5z"/></symbol></svg>